<svg width="24" height="24" viewBox="0 0 24 24" fill="none" xmlns="http://www.w3.org/2000/svg">
<rect width="24" height="24" fill="white"/>
<path d="M5 3H19C20.11 3 21 3.89 21 5V19C21 20.11 20.11 21 19 21H5C3.89 21 3 20.11 3 19V5C3 3.89 3.89 3 5 3Z" fill="#5A758D"/>
<path d="M13.9755 6.96438L13.9812 6.93062C14.0031 6.85044 14.0059 6.76639 13.9894 6.68497C13.9729 6.60355 13.9375 6.52697 13.8859 6.46115C13.8344 6.39533 13.7681 6.34204 13.6922 6.30542C13.6163 6.26881 13.5329 6.24984 13.4483 6.25H11.8667L12.2679 4.68063C12.2886 4.60007 12.2903 4.51594 12.273 4.43462C12.2556 4.3533 12.2196 4.27694 12.1677 4.21132C12.1158 4.14571 12.0493 4.09258 11.9733 4.05596C11.8973 4.01934 11.8139 4.00021 11.7292 4C11.4714 4 11.2536 4.16875 11.1906 4.41063L10.7207 6.25H8.42862L8.82973 4.68063C8.85046 4.60007 8.85221 4.51594 8.83485 4.43462C8.81749 4.3533 8.78148 4.27694 8.72956 4.21132C8.67763 4.14571 8.61116 4.09258 8.53518 4.05596C8.45921 4.01934 8.37573 4.00021 8.29109 4C8.03323 4 7.81549 4.16875 7.75245 4.41063L7.28258 6.25H5.42599C5.16813 6.25 4.94465 6.41875 4.88735 6.66062L4.87589 6.69438C4.78993 7.04312 5.05352 7.375 5.41453 7.375H6.99607L6.42304 9.625H4.56646C4.3086 9.625 4.09085 9.79375 4.02782 10.0356L4.01635 10.0694C3.9304 10.4181 4.19399 10.75 4.55499 10.75H6.13653L5.73542 12.3194C5.64947 12.6681 5.91306 13 6.27406 13C6.53192 13 6.74967 12.8313 6.8127 12.5894L7.28258 10.75H9.57466L9.17355 12.3194C9.08759 12.6681 9.35118 13 9.71219 13C9.97005 13 10.1878 12.8313 10.2508 12.5894L10.7207 10.75H12.5773C12.8352 10.75 13.0529 10.5813 13.1159 10.3394L13.1217 10.3056C13.1419 10.2251 13.1433 10.1411 13.1258 10.06C13.1082 9.97885 13.0722 9.90268 13.0204 9.83718C12.9685 9.77168 12.9023 9.71856 12.8265 9.68181C12.7508 9.64506 12.6675 9.62564 12.583 9.625H11.0072L11.5802 7.375H13.4368C13.6947 7.375 13.9182 7.20625 13.9755 6.96438ZM9.86117 9.625H7.56909L8.14211 7.375H10.4342L9.86117 9.625Z" fill="white"/>
<path d="M11.4171 16.7002H12.0744C12.2849 16.7002 12.4585 16.6668 12.5951 16.6C12.7317 16.5305 12.8327 16.4344 12.8981 16.3114C12.9664 16.1859 13.0006 16.0402 13.0006 15.8746C13.0006 15.7249 12.9693 15.5927 12.9067 15.4778C12.8469 15.3602 12.7544 15.2694 12.6292 15.2052C12.504 15.1384 12.3461 15.105 12.1555 15.105C12.0047 15.105 11.8652 15.1331 11.7372 15.1892C11.6091 15.2453 11.5067 15.3241 11.4299 15.4257C11.353 15.5272 11.3146 15.6501 11.3146 15.7944H10.0811C10.0811 15.4738 10.1722 15.1945 10.3543 14.9567C10.5392 14.7189 10.7868 14.5332 11.0969 14.3996C11.4071 14.266 11.7486 14.1992 12.1213 14.1992C12.5425 14.1992 12.9109 14.2633 13.2268 14.3916C13.5427 14.5172 13.7888 14.7029 13.9652 14.9487C14.1416 15.1945 14.2298 15.4992 14.2298 15.8625C14.2298 16.0469 14.1843 16.2259 14.0933 16.3996C14.0022 16.5706 13.8713 16.7256 13.7006 16.8645C13.5327 17.0008 13.3278 17.1104 13.0859 17.1932C12.8441 17.2734 12.5723 17.3134 12.2707 17.3134H11.4171V16.7002ZM11.4171 17.578V16.9808H12.2707C12.6093 16.9808 12.9067 17.0169 13.1628 17.089C13.4189 17.1611 13.6337 17.2654 13.8073 17.4016C13.9809 17.5352 14.1118 17.6942 14.2 17.8786C14.2882 18.0603 14.3323 18.262 14.3323 18.4838C14.3323 18.7563 14.2768 18.9995 14.1658 19.2132C14.0548 19.4243 13.8983 19.6034 13.6963 19.7503C13.4971 19.8973 13.2638 20.0095 12.9963 20.087C12.7288 20.1618 12.4372 20.1992 12.1213 20.1992C11.8595 20.1992 11.602 20.1658 11.3488 20.099C11.0984 20.0295 10.8707 19.9267 10.6658 19.7904C10.4638 19.6515 10.3016 19.4778 10.1793 19.2694C10.0598 19.0583 10 18.8084 10 18.5199H11.2335C11.2335 18.6695 11.2734 18.8031 11.353 18.9207C11.4327 19.0382 11.5423 19.1304 11.6817 19.1972C11.824 19.264 11.9819 19.2974 12.1555 19.2974C12.3518 19.2974 12.5197 19.264 12.6591 19.1972C12.8014 19.1277 12.9095 19.0316 12.9835 18.9086C13.0603 18.7831 13.0988 18.6374 13.0988 18.4718C13.0988 18.258 13.0575 18.087 12.975 17.9587C12.8925 17.8278 12.7744 17.7316 12.6207 17.6702C12.4671 17.6087 12.2849 17.578 12.0744 17.578H11.4171Z" fill="white"/>
<path d="M19.4286 19.2173V20.1191H15.1774V19.3495L17.1877 17.3255C17.3898 17.1144 17.5491 16.9287 17.6658 16.7684C17.7824 16.6054 17.8664 16.4597 17.9176 16.3315C17.9717 16.2006 17.9987 16.0763 17.9987 15.9587C17.9987 15.7824 17.9674 15.6314 17.9048 15.5058C17.8422 15.3776 17.7497 15.2787 17.6274 15.2092C17.5079 15.1398 17.3599 15.105 17.1835 15.105C16.9957 15.105 16.8335 15.1478 16.6969 15.2333C16.5632 15.3188 16.4607 15.4377 16.3896 15.59C16.3213 15.7423 16.2871 15.9146 16.2871 16.107H15.0536C15.0536 15.7597 15.1418 15.4417 15.3182 15.1531C15.4947 14.8619 15.7436 14.6307 16.0652 14.4597C16.3867 14.2861 16.768 14.1992 17.2091 14.1992C17.6444 14.1992 18.0115 14.266 18.3103 14.3996C18.6119 14.5305 18.8396 14.7203 18.9932 14.9688C19.1497 15.2146 19.228 15.5085 19.228 15.8505C19.228 16.0429 19.1952 16.2313 19.1298 16.4157C19.0643 16.5973 18.9704 16.779 18.8481 16.9607C18.7286 17.1398 18.5835 17.3215 18.4127 17.5058C18.242 17.6902 18.0528 17.8812 17.845 18.079L16.7652 19.2173H19.4286Z" fill="white"/>
</svg>
