<svg width="24" height="24" viewBox="0 0 24 24" fill="none" xmlns="http://www.w3.org/2000/svg">
<rect width="24" height="24" fill="white"/>
<path d="M5 3H19C20.11 3 21 3.89 21 5V19C21 20.11 20.11 21 19 21H5C3.89 21 3 20.11 3 19V5C3 3.89 3.89 3 5 3Z" fill="#5A758D"/>
<path d="M13.9755 6.96438L13.9812 6.93062C14.0031 6.85044 14.0059 6.76639 13.9894 6.68497C13.9729 6.60355 13.9375 6.52697 13.8859 6.46115C13.8344 6.39533 13.7681 6.34204 13.6922 6.30542C13.6163 6.26881 13.5329 6.24984 13.4483 6.25H11.8667L12.2679 4.68063C12.2886 4.60007 12.2903 4.51594 12.273 4.43462C12.2556 4.3533 12.2196 4.27694 12.1677 4.21132C12.1158 4.14571 12.0493 4.09258 11.9733 4.05596C11.8973 4.01934 11.8139 4.00021 11.7292 4C11.4714 4 11.2536 4.16875 11.1906 4.41063L10.7207 6.25H8.42862L8.82973 4.68063C8.85046 4.60007 8.85221 4.51594 8.83485 4.43462C8.81749 4.3533 8.78148 4.27694 8.72956 4.21132C8.67763 4.14571 8.61116 4.09258 8.53518 4.05596C8.45921 4.01934 8.37573 4.00021 8.29109 4C8.03323 4 7.81549 4.16875 7.75245 4.41063L7.28258 6.25H5.42599C5.16813 6.25 4.94465 6.41875 4.88735 6.66062L4.87589 6.69438C4.78993 7.04312 5.05352 7.375 5.41453 7.375H6.99607L6.42304 9.625H4.56646C4.3086 9.625 4.09085 9.79375 4.02782 10.0356L4.01635 10.0694C3.9304 10.4181 4.19399 10.75 4.55499 10.75H6.13653L5.73542 12.3194C5.64947 12.6681 5.91306 13 6.27406 13C6.53192 13 6.74967 12.8313 6.8127 12.5894L7.28258 10.75H9.57466L9.17355 12.3194C9.08759 12.6681 9.35118 13 9.71219 13C9.97005 13 10.1878 12.8313 10.2508 12.5894L10.7207 10.75H12.5773C12.8352 10.75 13.0529 10.5813 13.1159 10.3394L13.1217 10.3056C13.1419 10.2251 13.1433 10.1411 13.1258 10.06C13.1082 9.97885 13.0722 9.90268 13.0204 9.83718C12.9685 9.77168 12.9023 9.71856 12.8265 9.68181C12.7508 9.64506 12.6675 9.62564 12.583 9.625H11.0072L11.5802 7.375H13.4368C13.6947 7.375 13.9182 7.20625 13.9755 6.96438ZM9.86117 9.625H7.56909L8.14211 7.375H10.4342L9.86117 9.625Z" fill="white"/>
<path d="M13.9899 14H14.159V14.9256H14.0905C13.7847 14.9256 13.5124 14.9712 13.2736 15.0624C13.0349 15.1536 12.8323 15.2837 12.666 15.4527C12.5023 15.619 12.3763 15.8203 12.2877 16.0563C12.2019 16.2924 12.159 16.5567 12.159 16.8491V17.8229C12.159 18.0322 12.1791 18.2173 12.2193 18.3783C12.2622 18.5366 12.3226 18.6693 12.4004 18.7767C12.4809 18.8813 12.5748 18.9604 12.6821 19.0141C12.7894 19.0651 12.9101 19.0905 13.0443 19.0905C13.1704 19.0905 13.2844 19.0637 13.3863 19.0101C13.4909 18.9564 13.5795 18.8813 13.6519 18.7847C13.727 18.6854 13.7834 18.5701 13.8209 18.4386C13.8612 18.3045 13.8813 18.1583 13.8813 18C13.8813 17.8417 13.8612 17.6955 13.8209 17.5614C13.7834 17.4272 13.727 17.3119 13.6519 17.2153C13.5768 17.116 13.4856 17.0396 13.3783 16.9859C13.271 16.9323 13.1502 16.9054 13.0161 16.9054C12.8337 16.9054 12.6727 16.9484 12.5332 17.0342C12.3964 17.1174 12.2891 17.2247 12.2113 17.3561C12.1335 17.4876 12.1046 17.3139 12.1046 17.3139C12.1046 17.3139 11.8571 17.4339 11.8652 17.2274C11.8732 17.0208 11.7874 17.1429 11.8652 16.9577C11.9457 16.7726 12.0557 16.609 12.1952 16.4668C12.3374 16.3219 12.5077 16.2093 12.7062 16.1288C12.9048 16.0456 13.1288 16.004 13.3783 16.004C13.6519 16.004 13.892 16.0563 14.0986 16.161C14.3078 16.2656 14.4822 16.4091 14.6217 16.5915C14.7612 16.774 14.8659 16.9846 14.9356 17.2233C15.0054 17.4621 15.0402 17.717 15.0402 17.9879C15.0402 18.2723 14.9933 18.5366 14.8994 18.7807C14.8082 19.0248 14.6754 19.2381 14.501 19.4205C14.3293 19.603 14.1227 19.7451 13.8813 19.8471C13.6398 19.949 13.3689 20 13.0684 20C12.7572 20 12.4742 19.9437 12.2193 19.831C11.9671 19.7156 11.7498 19.5547 11.5674 19.3481C11.385 19.1415 11.2441 18.896 11.1449 18.6117C11.0483 18.3273 11 18.0161 11 17.6781V17.2274C11 16.7552 11.0684 16.3233 11.2052 15.9316C11.3447 15.5372 11.5446 15.1965 11.8048 14.9095C12.0651 14.6197 12.3789 14.3957 12.7465 14.2374C13.114 14.0791 13.5285 14 13.9899 14Z" fill="white"/>
<path d="M19.837 17.7304V18.6398H15.6157L15.5594 17.9356L18.002 14.0604H18.9235L17.9256 15.7304L16.7103 17.7304H19.837ZM19.173 14.0604V19.9195H18.0141V14.0604H19.173Z" fill="white"/>
</svg>
