<svg width="24" height="24" viewBox="0 0 24 24" fill="none" xmlns="http://www.w3.org/2000/svg">
<rect width="24" height="24" fill="white"/>
<path d="M5 5H7V8H17V5H19V10H21V5C21 3.9 20.1 3 19 3H14.82C14.4 1.84 13.3 1 12 1C10.7 1 9.6 1.84 9.18 3H5C3.9 3 3 3.9 3 5V19C3 20.1 3.9 21 5 21H10V19H5V5ZM12 3C12.55 3 13 3.45 13 4C13 4.55 12.55 5 12 5C11.45 5 11 4.55 11 4C11 3.45 11.45 3 12 3Z" fill="#5A758D"/>
<path d="M13.9524 21.15C13.6503 21.15 13.388 21.0406 13.1735 20.8261C12.9589 20.6115 12.8497 20.3493 12.85 20.0475M13.9524 21.15V14.3333L13.9526 14.1833M13.9524 21.15H19.6665M13.9524 21.15H19.6665M12.85 20.0475C12.85 20.0475 12.85 20.0475 12.85 20.0474L13 20.0476H12.85V20.0475ZM12.85 20.0475V15.2857C12.85 14.9837 12.9594 14.7213 13.1739 14.5068C13.3884 14.2923 13.6506 14.183 13.9524 14.1833C13.9524 14.1833 13.9525 14.1833 13.9526 14.1833M13.9526 14.1833L14.2786 14.1833M13.9526 14.1833L14.2786 14.1833M14.2786 14.1833V13.381C14.2786 12.6826 14.5265 12.0828 15.0192 11.5901C15.5118 11.0975 16.1114 10.8497 16.8095 10.85L14.2786 14.1833ZM19.3405 14.1833H19.6667C19.9687 14.1833 20.231 14.2927 20.4456 14.5073C20.6601 14.7218 20.7694 14.9841 20.769 15.2859M19.3405 14.1833L20.769 15.2859M19.3405 14.1833V13.381C19.3405 13.381 19.3405 13.381 19.3405 13.381C19.3408 12.6829 19.093 12.0833 18.6004 11.5906C18.1077 11.098 17.5079 10.85 16.8096 10.85L19.3405 14.1833ZM20.769 15.2859V20.0476C20.769 20.3497 20.6597 20.612 20.4451 20.8265C20.2306 21.0411 19.9683 21.1504 19.6665 21.15M20.769 15.2859L19.6665 21.15M19.6665 21.15L19.6667 21V21.15H19.6665ZM17.5884 18.4451C17.3739 18.6596 17.1117 18.769 16.8097 18.769C16.8096 18.769 16.8096 18.769 16.8095 18.769V18.619C16.5479 18.6194 16.3238 18.5262 16.1371 18.3395L17.5884 18.4451ZM17.5884 18.4451C17.803 18.2306 17.9123 17.9683 17.9119 17.6665L17.5884 18.4451ZM19.5167 15.4357V19.8976H14.1024V15.4357H19.5167ZM16.0306 16.8882C15.8161 17.1027 15.7068 17.3649 15.7071 17.6667L16.8095 16.7143V16.5643C16.8095 16.5643 16.8094 16.5643 16.8093 16.5643C16.5074 16.5643 16.2451 16.6737 16.0306 16.8882ZM18.0881 14.1833H15.531V13.381C15.531 13.0235 15.6544 12.7244 15.9037 12.4751C16.153 12.2258 16.452 12.1024 16.8095 12.1024C17.167 12.1024 17.466 12.2258 17.7154 12.4751C17.9647 12.7244 18.0881 13.0235 18.0881 13.381V14.1833Z" fill="#5A758D" stroke="#5A758D" stroke-width="0.3"/>
</svg>
