<svg width="24" height="24" viewBox="0 0 24 24" fill="none" xmlns="http://www.w3.org/2000/svg">
<rect width="24" height="24" fill="white"/>
<path d="M11.7143 4V8C11.7143 8.45466 11.8949 8.89069 12.2164 9.21218C12.5379 9.53367 12.9739 9.71429 13.4286 9.71429H17.4286V18.2857C17.4286 18.7404 17.248 19.1764 16.9265 19.4979C16.605 19.8194 16.1689 20 15.7143 20H7.71429C7.25963 20 6.82359 19.8194 6.5021 19.4979C6.18061 19.1764 6 18.7404 6 18.2857V5.71429C6 5.25963 6.18061 4.82359 6.5021 4.5021C6.82359 4.18061 7.25963 4 7.71429 4H11.7143ZM12.8571 4.28571V8C12.8571 8.15155 12.9173 8.2969 13.0245 8.40406C13.1317 8.51122 13.277 8.57143 13.4286 8.57143H17.1429L12.8571 4.28571Z" fill="#5A758D"/>
</svg>
