<svg width="24" height="24" viewBox="0 0 24 24" fill="none" xmlns="http://www.w3.org/2000/svg">
<rect width="24" height="24" fill="white"/>
<path d="M19 3H5C3.89 3 3 3.89 3 5V19C3 20.11 3.89 21 5 21H19C20.11 21 21 20.11 21 19V5C21 3.89 20.11 3 19 3Z" fill="#5A758D"/>
<path d="M16.9 14V14.1H17H18C18.2387 14.1 18.4676 14.1948 18.6364 14.3636C18.8052 14.5324 18.9 14.7613 18.9 15C18.9 15.2387 18.8052 15.4676 18.6364 15.6364C18.4676 15.8052 18.2387 15.9 18 15.9H14C13.7613 15.9 13.5324 15.8052 13.3636 15.6364C13.1948 15.4676 13.1 15.2387 13.1 15C13.1 14.7613 13.1948 14.5324 13.3636 14.3636C13.5324 14.1948 13.7613 14.1 14 14.1H15H15.1V14V10V9.9H15H14C13.7613 9.9 13.5324 9.80518 13.3636 9.6364C13.1948 9.46761 13.1 9.2387 13.1 9C13.1 8.76131 13.1948 8.53239 13.3636 8.3636C13.5324 8.19482 13.7613 8.1 14 8.1H16C16.2387 8.1 16.4676 8.19482 16.6364 8.3636C16.8052 8.53239 16.9 8.76131 16.9 9V14ZM9.63975 13.9731L9.56904 13.9024L9.63975 13.9731C9.72101 13.8918 9.76667 13.7816 9.76667 13.6667V10.3333C9.76667 10.2184 9.72101 10.1082 9.63975 10.0269C9.55848 9.94565 9.44826 9.9 9.33333 9.9H7.33333C7.21841 9.9 7.10819 9.94565 7.02692 10.0269C6.94565 10.1082 6.9 10.2184 6.9 10.3333V13.6667C6.9 13.9059 7.09411 14.1 7.33333 14.1H9.33333C9.44826 14.1 9.55848 14.0543 9.63975 13.9731ZM5.1 10.3333C5.1 9.10056 6.10056 8.1 7.33333 8.1H9.33333C10.5661 8.1 11.5667 9.10056 11.5667 10.3333V13.6667C11.5667 14.259 11.3314 14.827 10.9125 15.2459C10.4937 15.6647 9.92565 15.9 9.33333 15.9H7.33333C6.74102 15.9 6.17296 15.6647 5.75413 15.2459C5.3353 14.827 5.1 14.259 5.1 13.6667V10.3333Z" fill="white" stroke="#5A758D" stroke-width="0.2"/>
</svg>
