<svg width="24" height="24" viewBox="0 0 24 24" fill="none" xmlns="http://www.w3.org/2000/svg">
<rect width="24" height="24" fill="white"/>
<path fill-rule="evenodd" clip-rule="evenodd" d="M12.5664 2.38267C12.4163 2.23269 12.2129 2.14844 12.0008 2.14844C11.7886 2.14844 11.5852 2.23269 11.4352 2.38267L2.38396 11.4323C2.30945 11.5066 2.25035 11.5949 2.21002 11.6921C2.16969 11.7892 2.14893 11.8934 2.14893 11.9987C2.14893 12.1039 2.16969 12.2081 2.21002 12.3053C2.25035 12.4025 2.30945 12.4908 2.38396 12.5651L11.4352 21.6147C11.5852 21.7646 11.7886 21.8489 12.0008 21.8489C12.2129 21.8489 12.4163 21.7646 12.5664 21.6147L21.6176 12.5651C21.6921 12.4908 21.7512 12.4025 21.7915 12.3053C21.8318 12.2081 21.8526 12.1039 21.8526 11.9987C21.8526 11.8934 21.8318 11.7892 21.7915 11.6921C21.7512 11.5949 21.6921 11.5066 21.6176 11.4323L12.5664 2.38267ZM12 4.07867L4.07996 11.9987L12 19.9187V4.07867Z" fill="#5A758D"/>
</svg>
