<svg width="14" height="14" viewBox="0 0 14 14" fill="none" xmlns="http://www.w3.org/2000/svg">
<path d="M2.52778 0C1.85737 0 1.21442 0.266319 0.740369 0.740369C0.266319 1.21442 0 1.85737 0 2.52778V11.4722C0 12.1426 0.266319 12.7856 0.740369 13.2596C1.21442 13.7337 1.85737 14 2.52778 14H11.4722C12.1426 14 12.7856 13.7337 13.2596 13.2596C13.7337 12.7856 14 12.1426 14 11.4722V2.52778C14 1.85737 13.7337 1.21442 13.2596 0.740369C12.7856 0.266319 12.1426 0 11.4722 0H2.52778ZM11.1067 4.88444L5.85356 10.1321C5.74418 10.2414 5.59592 10.3027 5.44133 10.3027C5.28675 10.3027 5.13849 10.2414 5.02911 10.1321L2.89333 7.99556C2.79029 7.88497 2.7342 7.73872 2.73686 7.58759C2.73953 7.43647 2.80075 7.29228 2.90763 7.18541C3.0145 7.07853 3.15869 7.01731 3.30982 7.01464C3.46094 7.01198 3.6072 7.06807 3.71778 7.17111L5.44211 8.89467L10.2822 4.05922C10.3365 4.00509 10.4008 3.96217 10.4716 3.93291C10.5425 3.90365 10.6184 3.88863 10.695 3.8887C10.7716 3.88877 10.8475 3.90394 10.9183 3.93333C10.989 3.96272 11.0533 4.00576 11.1074 4.06C11.1616 4.11424 11.2045 4.1786 11.2338 4.24943C11.263 4.32025 11.278 4.39614 11.278 4.47277C11.2779 4.5494 11.2627 4.62527 11.2333 4.69603C11.2039 4.7668 11.1609 4.83109 11.1067 4.88522V4.88444Z" fill="#5A758D"/>
</svg>
