<svg width="24" height="24" viewBox="0 0 24 24" fill="none" xmlns="http://www.w3.org/2000/svg">
<rect width="24" height="24" fill="white"/>
<path d="M19 3H5C3.89 3 3 3.89 3 5V19C3 20.11 3.89 21 5 21H19C20.11 21 21 20.11 21 19V5C21 3.89 20.11 3 19 3Z" fill="#5A758D"/>
<path fill-rule="evenodd" clip-rule="evenodd" d="M7 10.8958C7 9.84933 7.84933 9 8.89583 9H10.5208C11.5673 9 12.4167 9.84933 12.4167 10.8958V13.6042C12.4167 14.107 12.2169 14.5892 11.8614 14.9447C11.5059 15.3003 11.0236 15.5 10.5208 15.5H8.89583C8.39303 15.5 7.91081 15.3003 7.55528 14.9447C7.19974 14.5892 7 14.107 7 13.6042V10.8958ZM8.89583 10.625C8.824 10.625 8.75512 10.6535 8.70433 10.7043C8.65353 10.7551 8.625 10.824 8.625 10.8958V13.6042C8.625 13.7537 8.74633 13.875 8.89583 13.875H10.5208C10.5927 13.875 10.6616 13.8465 10.7123 13.7957C10.7631 13.7449 10.7917 13.676 10.7917 13.6042V10.8958C10.7917 10.824 10.7631 10.7551 10.7123 10.7043C10.6616 10.6535 10.5927 10.625 10.5208 10.625H8.89583ZM14 10.8958C14 9.84933 14.8493 9 15.8958 9H17.5208C18.5673 9 19.4167 9.84933 19.4167 10.8958V13.6042C19.4167 14.107 19.2169 14.5892 18.8614 14.9447C18.5059 15.3003 18.0236 15.5 17.5208 15.5H15.8958C15.393 15.5 14.9108 15.3003 14.5553 14.9447C14.1997 14.5892 14 14.107 14 13.6042V10.8958ZM15.8958 10.625C15.824 10.625 15.7551 10.6535 15.7043 10.7043C15.6535 10.7551 15.625 10.824 15.625 10.8958V13.6042C15.625 13.7537 15.7463 13.875 15.8958 13.875H17.5208C17.5927 13.875 17.6616 13.8465 17.7123 13.7957C17.7631 13.7449 17.7917 13.676 17.7917 13.6042V10.8958C17.7917 10.824 17.7631 10.7551 17.7123 10.7043C17.6616 10.6535 17.5927 10.625 17.5208 10.625H15.8958ZM5.83147 14.5556C5.94135 14.3911 6 14.1978 6 14C6 13.7348 5.89464 13.4804 5.70711 13.2929C5.51957 13.1054 5.26522 13 5 13C4.80222 13 4.60888 13.0586 4.44443 13.1685C4.27998 13.2784 4.15181 13.4346 4.07612 13.6173C4.00043 13.8 3.98063 14.0011 4.01922 14.1951C4.0578 14.3891 4.15304 14.5673 4.29289 14.7071C4.43275 14.847 4.61093 14.9422 4.80491 14.9808C4.99889 15.0194 5.19996 14.9996 5.38268 14.9239C5.56541 14.8482 5.72159 14.72 5.83147 14.5556Z" fill="white"/>
</svg>
