<svg width="24" height="24" viewBox="0 0 24 24" fill="none" xmlns="http://www.w3.org/2000/svg">
<rect width="24" height="24" fill="white"/>
<path d="M19 3H5C3.89 3 3 3.89 3 5V19C3 20.11 3.89 21 5 21H19C20.11 21 21 20.11 21 19V5C21 3.89 20.11 3 19 3Z" fill="#5A758D"/>
<path d="M8.23226 11.7009V13.8775C8.15158 13.9806 8.02699 14.0925 7.85851 14.2133C7.69003 14.3314 7.4729 14.4333 7.20712 14.5188C6.94134 14.6043 6.6198 14.6471 6.24249 14.6471C5.9079 14.6471 5.60297 14.5892 5.3277 14.4735C5.05243 14.3553 4.81513 14.1831 4.6158 13.9567C4.41884 13.7304 4.26696 13.4538 4.16018 13.1268C4.05339 12.7974 4 12.4214 4 11.9989V11.6557C4 11.2332 4.05102 10.8572 4.15306 10.5278C4.25747 10.1983 4.40578 9.92043 4.598 9.69409C4.79021 9.46776 5.01921 9.29549 5.28498 9.1773C5.55076 9.0591 5.8462 9 6.1713 9C6.62217 9 6.99236 9.07796 7.28187 9.23388C7.57138 9.38728 7.79207 9.60105 7.94394 9.87516C8.09818 10.1468 8.1931 10.4586 8.2287 10.8107H7.19288C7.16678 10.6246 7.11694 10.4624 7.04338 10.3241C6.96982 10.1857 6.86422 10.0776 6.72658 9.99965C6.59132 9.92169 6.41572 9.88271 6.19978 9.88271C6.0218 9.88271 5.86281 9.92169 5.7228 9.99965C5.58517 10.0751 5.46889 10.187 5.37397 10.3354C5.27905 10.4838 5.20667 10.6673 5.15684 10.8861C5.10701 11.1049 5.08209 11.3589 5.08209 11.6481V11.9989C5.08209 12.2856 5.10819 12.5396 5.1604 12.7609C5.21261 12.9797 5.28973 13.1646 5.39177 13.3155C5.49618 13.4638 5.62432 13.5757 5.7762 13.6512C5.92807 13.7266 6.10486 13.7644 6.30656 13.7644C6.47505 13.7644 6.61505 13.7493 6.72658 13.7191C6.84049 13.6889 6.93185 13.6524 7.00067 13.6097C7.07186 13.5644 7.12644 13.5217 7.1644 13.4814V12.5082H6.1891V11.7009H8.23226Z" fill="white"/>
<path d="M11.9555 9.07922H13.0198V12.7081C13.0198 13.1306 12.9344 13.4865 12.7635 13.7757C12.595 14.0649 12.3613 14.2824 12.0623 14.4283C11.7657 14.5741 11.424 14.6471 11.0372 14.6471C10.6504 14.6471 10.3063 14.5741 10.0049 14.4283C9.70589 14.2824 9.47097 14.0649 9.30011 13.7757C9.13163 13.4865 9.04739 13.1306 9.04739 12.7081V9.07922H10.1152V12.7081C10.1152 12.9546 10.152 13.1558 10.2256 13.3117C10.2991 13.4676 10.4047 13.582 10.5424 13.655C10.6824 13.7279 10.8473 13.7644 11.0372 13.7644C11.2317 13.7644 11.3967 13.7279 11.5319 13.655C11.6696 13.582 11.774 13.4676 11.8452 13.3117C11.9187 13.1558 11.9555 12.9546 11.9555 12.7081V9.07922Z" fill="white"/>
<path d="M15.0345 9.07922V14.5716H13.9702V9.07922H15.0345Z" fill="white"/>
<path d="M17.6258 14.5716H16.4974L16.5046 13.6889H17.6258C17.9058 13.6889 18.1419 13.6223 18.3341 13.489C18.5264 13.3532 18.6711 13.1558 18.7684 12.8967C18.8681 12.6377 18.9179 12.3246 18.9179 11.9574V11.6896C18.9179 11.408 18.8894 11.1602 18.8325 10.9465C18.7779 10.7327 18.696 10.5529 18.5869 10.407C18.4777 10.2612 18.3436 10.1518 18.1846 10.0789C18.0257 10.0034 17.8429 9.9657 17.6365 9.9657H16.4761V9.07922H17.6365C17.9829 9.07922 18.2997 9.14209 18.5869 9.26783C18.8764 9.39106 19.1267 9.56835 19.3379 9.79972C19.5491 10.0311 19.7117 10.3077 19.8256 10.6296C19.9419 10.949 20 11.3048 20 11.6972V11.9574C20 12.3472 19.9419 12.7031 19.8256 13.025C19.7117 13.3469 19.5491 13.6235 19.3379 13.8549C19.1291 14.0837 18.8788 14.261 18.5869 14.3868C18.2974 14.51 17.977 14.5716 17.6258 14.5716ZM17.1026 9.07922V14.5716H16.0347V9.07922H17.1026Z" fill="white"/>
</svg>
