<svg width="20" height="20" viewBox="0 0 20 20" fill="none" xmlns="http://www.w3.org/2000/svg">
<path fill-rule="evenodd" clip-rule="evenodd" d="M2.5 3.16797C3.05228 3.16797 3.5 3.61568 3.5 4.16797V9.0013H8.16667V4.16797C8.16667 3.61568 8.61438 3.16797 9.16667 3.16797C9.71895 3.16797 10.1667 3.61568 10.1667 4.16797V15.8346C10.1667 16.3869 9.71895 16.8346 9.16667 16.8346C8.61438 16.8346 8.16667 16.3869 8.16667 15.8346V11.0013H3.5V15.8346C3.5 16.3869 3.05228 16.8346 2.5 16.8346C1.94772 16.8346 1.5 16.3869 1.5 15.8346V4.16797C1.5 3.61568 1.94772 3.16797 2.5 3.16797ZM15.8981 8.72974C15.6748 8.58065 15.4124 8.50115 15.1439 8.5013H15C14.6022 8.5013 14.2206 8.65934 13.9393 8.94064C13.658 9.22195 13.5 9.60348 13.5 10.0013V10.418C13.5 10.9703 13.0523 11.418 12.5 11.418C11.9477 11.418 11.5 10.9703 11.5 10.418V10.0013C11.5 9.07305 11.8687 8.18281 12.5251 7.52643C13.1815 6.87005 14.0717 6.5013 15 6.5013L15.1428 6.5013C15.8068 6.50104 16.4566 6.69773 17.0088 7.06651C17.5612 7.4354 17.9917 7.95987 18.2459 8.57356C18.5 9.18724 18.5664 9.86254 18.4366 10.514C18.3068 11.1654 17.9866 11.7637 17.5166 12.233L14.9145 14.8346H17.5C18.0523 14.8346 18.5 15.2824 18.5 15.8346C18.5 16.3869 18.0523 16.8346 17.5 16.8346H12.5C12.0955 16.8346 11.7309 16.591 11.5761 16.2173C11.4213 15.8436 11.5069 15.4134 11.793 15.1275L16.103 10.8183C16.2929 10.6286 16.4227 10.3864 16.4752 10.1231C16.5276 9.85981 16.5008 9.58688 16.3981 9.33885C16.2954 9.09081 16.1214 8.87884 15.8981 8.72974Z" fill="#5A758D"/>
</svg>
