<svg width="20" height="20" viewBox="0 0 20 20" fill="none" xmlns="http://www.w3.org/2000/svg">
<path fill-rule="evenodd" clip-rule="evenodd" d="M2.5 3.16797C3.05228 3.16797 3.5 3.61568 3.5 4.16797V9.0013H8.16667V4.16797C8.16667 3.61568 8.61438 3.16797 9.16667 3.16797C9.71895 3.16797 10.1667 3.61568 10.1667 4.16797V15.8346C10.1667 16.3869 9.71895 16.8346 9.16667 16.8346C8.61438 16.8346 8.16667 16.3869 8.16667 15.8346V11.0013H3.5V15.8346C3.5 16.3869 3.05228 16.8346 2.5 16.8346C1.94772 16.8346 1.5 16.3869 1.5 15.8346V4.16797C1.5 3.61568 1.94772 3.16797 2.5 3.16797ZM11.5 7.5013C11.5 6.94902 11.9477 6.5013 12.5 6.5013H17.5C17.9045 6.5013 18.2691 6.74494 18.4239 7.11862C18.5787 7.49229 18.4931 7.92241 18.2071 8.20841L16.3215 10.094C16.4932 10.1641 16.6598 10.248 16.8195 10.3452C17.3676 10.6789 17.8134 11.1569 18.1082 11.7269C18.4029 12.2969 18.5353 12.937 18.4909 13.5772C18.4464 14.2174 18.2268 14.833 17.856 15.3568C17.4852 15.8806 16.9776 16.2923 16.3886 16.5471C15.7996 16.8018 15.1519 16.8897 14.5163 16.8012C13.8808 16.7126 13.2817 16.451 12.7848 16.045C12.2879 15.639 11.9121 15.1041 11.6986 14.499C11.5149 13.9781 11.7882 13.407 12.309 13.2233C12.8298 13.0395 13.401 13.3128 13.5847 13.8336C13.6762 14.093 13.8372 14.3222 14.0502 14.4962C14.2632 14.6702 14.5199 14.7823 14.7923 14.8203C15.0647 14.8582 15.3423 14.8206 15.5947 14.7114C15.8471 14.6022 16.0647 14.4257 16.2236 14.2013C16.3825 13.9768 16.4766 13.713 16.4957 13.4386C16.5147 13.1642 16.458 12.8899 16.3317 12.6456C16.2053 12.4013 16.0143 12.1965 15.7794 12.0534C15.5445 11.9105 15.2749 11.8348 15 11.8346C14.9999 11.8346 15.0001 11.8346 15 11.8346H14.1667C13.7622 11.8346 13.3976 11.591 13.2428 11.2173C13.088 10.8436 13.1736 10.4135 13.4596 10.1275L15.0858 8.5013H12.5C11.9477 8.5013 11.5 8.05359 11.5 7.5013Z" fill="#5A758D"/>
</svg>
