<svg width="19" height="8" viewBox="0 0 19 8" fill="none" xmlns="http://www.w3.org/2000/svg">
<path d="M18.8012 4.4763L16.088 7.1895C15.9583 7.31486 15.785 7.38494 15.6047 7.38494C15.4243 7.38494 15.2511 7.31486 15.1214 7.1895C14.994 7.06089 14.9226 6.88721 14.9226 6.70621C14.9226 6.52521 14.994 6.35152 15.1214 6.22292L16.6815 4.67131H2.31851L3.8786 6.22292C4.00597 6.35152 4.07743 6.52521 4.07743 6.70621C4.07743 6.88721 4.00597 7.06089 3.8786 7.1895C3.74895 7.31486 3.57566 7.38494 3.39531 7.38494C3.21496 7.38494 3.04167 7.31486 2.91202 7.1895L0.198826 4.4763C0.0714544 4.3477 0 4.17401 0 3.99301C0 3.81201 0.0714544 3.63833 0.198826 3.50972L2.91202 0.796529C3.04381 0.688365 3.21112 0.633089 3.38141 0.641452C3.5517 0.649816 3.71279 0.721221 3.83335 0.841778C3.95391 0.962336 4.02531 1.12343 4.03367 1.29371C4.04204 1.464 3.98676 1.63131 3.8786 1.7631L2.31851 3.31471H16.6815L15.1214 1.7631C15.0132 1.63131 14.958 1.464 14.9663 1.29371C14.9747 1.12343 15.0461 0.962336 15.1667 0.841778C15.2872 0.721221 15.4483 0.649816 15.6186 0.641452C15.7889 0.633089 15.9562 0.688365 16.088 0.796529L18.8012 3.50972C18.9285 3.63833 19 3.81201 19 3.99301C19 4.17401 18.9285 4.3477 18.8012 4.4763Z" fill="#5A758D"/>
</svg>
