<svg width="24" height="24" viewBox="0 0 24 24" fill="none" xmlns="http://www.w3.org/2000/svg">
<rect width="24" height="24" fill="white"/>
<path d="M4 15L8.1272 10.8728C8.29435 10.7057 8.49278 10.5731 8.71116 10.4826C8.92955 10.3921 9.16362 10.3456 9.4 10.3456C9.63638 10.3456 9.87045 10.3921 10.0888 10.4826C10.3072 10.5731 10.5057 10.7057 10.6728 10.8728L14.8 15M13.6 13.8L14.7272 12.6728C14.8943 12.5057 15.0928 12.3731 15.3112 12.2826C15.5296 12.1921 15.7636 12.1456 16 12.1456C16.2364 12.1456 16.4704 12.1921 16.6888 12.2826C16.9072 12.3731 17.1057 12.5057 17.2728 12.6728L19.6 15M5.2 18H18.4C18.7183 18 19.0235 17.8736 19.2485 17.6485C19.4736 17.4235 19.6 17.1183 19.6 16.8V7.2C19.6 6.88174 19.4736 6.57652 19.2485 6.35147C19.0235 6.12643 18.7183 6 18.4 6H5.2C4.88174 6 4.57652 6.12643 4.35147 6.35147C4.12643 6.57652 4 6.88174 4 7.2V16.8C4 17.1183 4.12643 17.4235 4.35147 17.6485C4.57652 17.8736 4.88174 18 5.2 18ZM13.6 9H13.6064V9.0064H13.6V9ZM13.9 9C13.9 9.07956 13.8684 9.15587 13.8121 9.21213C13.7559 9.26839 13.6796 9.3 13.6 9.3C13.5204 9.3 13.4441 9.26839 13.3879 9.21213C13.3316 9.15587 13.3 9.07956 13.3 9C13.3 8.92044 13.3316 8.84413 13.3879 8.78787C13.4441 8.73161 13.5204 8.7 13.6 8.7C13.6796 8.7 13.7559 8.73161 13.8121 8.78787C13.8684 8.84413 13.9 8.92044 13.9 9V9Z" stroke="#5A758D" stroke-width="1.8" stroke-linecap="round" stroke-linejoin="round"/>
</svg>
