<svg width="24" height="24" viewBox="0 0 24 24" fill="none" xmlns="http://www.w3.org/2000/svg">
<rect width="24" height="24" fill="white"/>
<path d="M9.375 16.2782C9.945 16.6065 10.6733 16.4033 11.0058 15.8406L11.75 14.559L12.51 15.8562C12.8425 16.4189 13.5708 16.6065 14.1408 16.2939C14.7108 15.9656 14.9008 15.2623 14.5842 14.6996L13.8083 13.3867H15.3125C15.9617 13.3867 16.5 12.8553 16.5 12.2145C16.5 11.5737 15.9617 11.0423 15.3125 11.0423H13.8083L14.5525 9.76062C14.885 9.19795 14.695 8.47898 14.125 8.15076C13.8491 7.99914 13.524 7.96005 13.2193 8.04182C12.9146 8.12359 12.6543 8.31975 12.4942 8.58839L11.75 9.87003L11.0058 8.58839C10.8456 8.31975 10.5854 8.12359 10.2807 8.04182C9.97595 7.96005 9.65092 7.99914 9.375 8.15076C8.805 8.47898 8.615 9.19795 8.9475 9.76062L9.69167 11.0423H8.1875C7.53833 11.0423 7 11.5737 7 12.2145C7 12.8553 7.53833 13.3867 8.1875 13.3867H9.69167L8.93167 14.684C8.615 15.2467 8.805 15.9656 9.375 16.2782Z" fill="#5A758D"/>
<path d="M15.375 3V5.25H18.75V18.75H15.375V21H21V3H15.375ZM3 21H8.625V18.75H5.25V5.25H8.625V3H3V21Z" fill="#5A758D"/>
</svg>
