<svg width="24" height="24" viewBox="0 0 24 24" fill="none" xmlns="http://www.w3.org/2000/svg">
<rect width="24" height="24" fill="white"/>
<g clip-path="url(#clip0_1760_150142)">
<rect width="18" height="18" transform="translate(3 3)" fill="white"/>
<path d="M12.6915 15.4418L9.93827 18.1951C9.38424 18.7117 8.65124 18.9929 7.89383 18.9795C7.13643 18.9661 6.41384 18.6591 5.87843 18.1232C5.34303 17.5873 5.03667 16.8645 5.02395 16.107C5.01123 15.3496 5.29316 14.6169 5.81027 14.0633L5.80877 14.0648L8.56202 11.3116C8.72917 11.1259 8.81867 10.8831 8.81205 10.6334C8.80542 10.3837 8.70319 10.146 8.52644 9.96944C8.34969 9.79289 8.11191 9.69091 7.86216 9.68456C7.61242 9.67821 7.36976 9.76798 7.18427 9.93533L7.18502 9.93458L4.43177 12.6878C3.55683 13.6091 3.07652 14.8358 3.09332 16.1062C3.11012 17.3767 3.62269 18.5902 4.52168 19.4881C5.42068 20.3859 6.63492 20.8969 7.90537 20.912C9.17582 20.9271 10.4019 20.4452 11.322 19.5691L11.3198 19.5706L14.073 16.8173C14.2402 16.6316 14.3297 16.3889 14.323 16.1392C14.3164 15.8894 14.2142 15.6518 14.0374 15.4752C13.8607 15.2986 13.6229 15.1967 13.3732 15.1903C13.1234 15.184 12.8808 15.2737 12.6953 15.4411L12.696 15.4403L12.6915 15.4418ZM21.0053 7.86833C21.0048 6.90521 20.7189 5.96385 20.1835 5.16323C19.6482 4.36261 18.8875 3.73868 17.9976 3.37032C17.1077 3.00196 16.1286 2.90569 15.184 3.0937C14.2394 3.28171 13.3718 3.74554 12.6908 4.42658L9.93752 7.17983C9.83919 7.26834 9.75991 7.37594 9.7045 7.49608C9.64908 7.61621 9.6187 7.74637 9.61519 7.87862C9.61169 8.01087 9.63513 8.14246 9.6841 8.26536C9.73307 8.38826 9.80654 8.49991 9.90004 8.59351C9.99354 8.68711 10.1051 8.76071 10.228 8.80981C10.3508 8.85892 10.4824 8.88251 10.6146 8.87914C10.7469 8.87578 10.8771 8.84554 10.9973 8.79026C11.1175 8.73497 11.2251 8.65581 11.3138 8.55758L11.3145 8.55683L14.0678 5.80358C14.6218 5.28697 15.3548 5.00571 16.1122 5.01911C16.8696 5.03251 17.5922 5.33953 18.1276 5.87542C18.663 6.41131 18.9694 7.13419 18.9821 7.8916C18.9948 8.64901 18.7129 9.38176 18.1958 9.93533L18.1973 9.93383L15.444 12.6871C15.3457 12.7756 15.2664 12.8832 15.211 13.0033C15.1556 13.1235 15.1252 13.2536 15.1217 13.3859C15.1182 13.5181 15.1416 13.6497 15.1906 13.7726C15.2396 13.8955 15.313 14.0072 15.4065 14.1008C15.5 14.1944 15.6116 14.268 15.7345 14.3171C15.8573 14.3662 15.9889 14.3898 16.1211 14.3864C16.2534 14.383 16.3836 14.3528 16.5038 14.2975C16.624 14.2422 16.7316 14.1631 16.8203 14.0648L16.821 14.0641L19.5743 11.3108C20.0283 10.8615 20.3887 10.3265 20.6343 9.73686C20.88 9.14719 21.0061 8.51461 21.0053 7.87583V7.86833Z" fill="#5A758D"/>
<path d="M8.55905 15.4424C8.7353 15.6187 8.9783 15.7274 9.24755 15.7274C9.5168 15.7274 9.7598 15.6187 9.93605 15.4424L15.4425 9.93592C15.6097 9.75025 15.6992 9.50749 15.6926 9.25776C15.686 9.00802 15.5837 8.77035 15.407 8.59379C15.2302 8.41723 14.9924 8.31526 14.7427 8.30891C14.4929 8.30256 14.2503 8.39232 14.0648 8.55967L14.0655 8.55892L8.55905 14.0654C8.3828 14.2417 8.27405 14.4847 8.27405 14.7539C8.27405 15.0232 8.3828 15.2662 8.55905 15.4424Z" fill="#5A758D"/>
</g>
<defs>
<clipPath id="clip0_1760_150142">
<rect width="18" height="18" fill="white" transform="translate(3 3)"/>
</clipPath>
</defs>
</svg>
