<svg width="24" height="24" viewBox="0 0 24 24" fill="none" xmlns="http://www.w3.org/2000/svg">
<rect width="24" height="24" fill="white"/>
<path d="M21 7.95909H21.05V7.90909V3V2.95H21H16.0909H16.0409V3V4.58636H7.95909V3V2.95H7.90909H3H2.95V3V7.90909V7.95909H3H4.58636V16.0409H3H2.95V16.0909V21V21.05H3H7.90909H7.95909V21V19.4136H16.0409V21V21.05H16.0909H21H21.05V21V16.0909V16.0409H21H19.4136V7.95909H21ZM6.32273 16.0409V7.95909H7.90909H7.95909V7.90909V6.32273H16.0409V7.90909V7.95909H16.0909H17.6773V16.0409H16.0909H16.0409V16.0909V17.6773H7.95909V16.0909V16.0409H7.90909H6.32273ZM9.96273 15.3227H9.9977L10.0097 15.2899L10.595 13.6864H13.3806L13.974 15.2901L13.9861 15.3227H14.0209H15.3545H15.427L15.4013 15.255L12.6113 7.89138L12.5991 7.85909H12.5645H11.4191H11.3845L11.3723 7.89142L8.5905 15.2551L8.56493 15.3227H8.63727H9.96273ZM4.68636 4.68636H6.22273V6.22273H4.68636V4.68636ZM6.22273 19.3136H4.68636V17.7773H6.22273V19.3136ZM19.3136 19.3136H17.7773V17.7773H19.3136V19.3136ZM17.7773 6.22273V4.68636H19.3136V6.22273H17.7773ZM10.9981 12.5555L11.9998 9.62685L12.9939 12.5555H10.9981Z" fill="#5A758D" stroke="#5A758D" stroke-width="0.1"/>
</svg>
