<svg width="16" height="14" viewBox="0 0 16 14" fill="none" xmlns="http://www.w3.org/2000/svg">
<path d="M15.2325 4.61125L15.2412 4.55875C15.2747 4.43402 15.279 4.30327 15.2537 4.17662C15.2285 4.04997 15.1745 3.93084 15.0958 3.82845C15.0171 3.72606 14.9159 3.64318 14.8 3.58622C14.6841 3.52926 14.5566 3.49976 14.4275 3.5H12.0125L12.625 1.05875C12.6566 0.933442 12.6593 0.80257 12.6328 0.676074C12.6063 0.549579 12.5513 0.430788 12.472 0.328725C12.3927 0.226662 12.2912 0.144011 12.1752 0.0870514C12.0592 0.0300914 11.9317 0.000320585 11.8025 0C11.4087 0 11.0762 0.2625 10.98 0.63875L10.2625 3.5H6.76247L7.37497 1.05875C7.40662 0.933442 7.40929 0.80257 7.38279 0.676074C7.35628 0.549579 7.3013 0.430788 7.22201 0.328725C7.14272 0.226662 7.04121 0.144011 6.9252 0.0870514C6.80919 0.0300914 6.68172 0.000320585 6.55247 0C6.15872 0 5.82622 0.2625 5.72997 0.63875L5.01247 3.5H2.17747C1.78372 3.5 1.44247 3.7625 1.35497 4.13875L1.33747 4.19125C1.20622 4.73375 1.60872 5.25 2.15997 5.25H4.57497L3.69997 8.75H0.864974C0.471224 8.75 0.138724 9.0125 0.0424738 9.38875L0.0249738 9.44125C-0.106276 9.98375 0.296224 10.5 0.847474 10.5H3.26247L2.64997 12.9413C2.51872 13.4838 2.92122 14 3.47247 14C3.86622 14 4.19872 13.7375 4.29497 13.3612L5.01247 10.5H8.51247L7.89997 12.9413C7.76872 13.4838 8.17122 14 8.72247 14C9.11622 14 9.44872 13.7375 9.54497 13.3612L10.2625 10.5H13.0975C13.4912 10.5 13.8237 10.2375 13.92 9.86125L13.9287 9.80875C13.9597 9.68349 13.9618 9.55286 13.935 9.42665C13.9082 9.30044 13.8532 9.18194 13.774 9.08006C13.6949 8.97817 13.5937 8.89554 13.478 8.83837C13.3624 8.78121 13.2352 8.75099 13.1062 8.75H10.7L11.575 5.25H14.41C14.8037 5.25 15.145 4.9875 15.2325 4.61125ZM8.94997 8.75H5.44997L6.32497 5.25H9.82497L8.94997 8.75Z" fill="#5A758D"/>
</svg>
