<svg width="14" height="14" viewBox="0 0 14 14" fill="none" xmlns="http://www.w3.org/2000/svg">
<path fill-rule="evenodd" clip-rule="evenodd" d="M0 7C0 3.136 3.136 0 7 0C10.864 0 14 3.136 14 7C14 10.864 10.864 14 7 14C3.136 14 0 10.864 0 7ZM1.4 7C1.4 10.094 3.906 12.6 7 12.6C10.094 12.6 12.6 10.094 12.6 7C12.6 3.906 10.094 1.4 7 1.4C3.906 1.4 1.4 3.906 1.4 7ZM10.5 7C10.5 8.933 8.933 10.5 7 10.5C5.067 10.5 3.5 8.933 3.5 7C3.5 5.067 5.067 3.5 7 3.5C8.933 3.5 10.5 5.067 10.5 7Z" fill="#5A758D"/>
</svg>
