<svg width="21" height="20" viewBox="0 0 21 20" fill="none" xmlns="http://www.w3.org/2000/svg">
<path fill-rule="evenodd" clip-rule="evenodd" d="M3.5 2C3.23478 2 2.98043 2.10536 2.79289 2.29289C2.60536 2.48043 2.5 2.73478 2.5 3V17C2.5 17.2652 2.60536 17.5196 2.79289 17.7071C2.98043 17.8946 3.23478 18 3.5 18H17.5C17.7652 18 18.0196 17.8946 18.2071 17.7071C18.3946 17.5196 18.5 17.2652 18.5 17V6.41421L14.0858 2H3.5ZM1.37868 0.87868C1.94129 0.31607 2.70435 0 3.5 0H14.5C14.7652 0 15.0196 0.105357 15.2071 0.292893L20.2071 5.29289C20.3946 5.48043 20.5 5.73478 20.5 6V17C20.5 17.7957 20.1839 18.5587 19.6213 19.1213C19.0587 19.6839 18.2957 20 17.5 20H3.5C2.70435 20 1.94129 19.6839 1.37868 19.1213C0.81607 18.5587 0.5 17.7957 0.5 17V3C0.5 2.20435 0.81607 1.44129 1.37868 0.87868Z" fill="#0049C2"/>
<path fill-rule="evenodd" clip-rule="evenodd" d="M4.5 11C4.5 10.4477 4.94772 10 5.5 10H15.5C16.0523 10 16.5 10.4477 16.5 11V19C16.5 19.5523 16.0523 20 15.5 20C14.9477 20 14.5 19.5523 14.5 19V12H6.5V19C6.5 19.5523 6.05228 20 5.5 20C4.94772 20 4.5 19.5523 4.5 19V11Z" fill="#0049C2"/>
<path fill-rule="evenodd" clip-rule="evenodd" d="M5.5 0C6.05228 0 6.5 0.447715 6.5 1V5H13.5C14.0523 5 14.5 5.44772 14.5 6C14.5 6.55228 14.0523 7 13.5 7H5.5C4.94772 7 4.5 6.55228 4.5 6V1C4.5 0.447715 4.94772 0 5.5 0Z" fill="#0049C2"/>
</svg>
