<svg width="16" height="11" viewBox="0 0 16 11" fill="none" xmlns="http://www.w3.org/2000/svg">
<path d="M0.5 6.28889V6.78889H1H2.45185H2.95185V6.28889V4.83704V4.33704H2.45185H1H0.5V4.83704V6.28889ZM0.5 10.1259V10.6259H1H2.45185H2.95185V10.1259V8.67407V8.17407H2.45185H1H0.5V8.67407V10.1259ZM0.5 2.45185V2.95185H1H2.45185H2.95185V2.45185V1V0.5H2.45185H1H0.5V1V2.45185ZM4.33704 6.28889V6.78889H4.83704H15H15.5V6.28889V4.83704V4.33704H15H4.83704H4.33704V4.83704V6.28889ZM4.33704 10.1259V10.6259H4.83704H15H15.5V10.1259V8.67407V8.17407H15H4.83704H4.33704V8.67407V10.1259ZM4.83704 0.5H4.33704V1V2.45185V2.95185H4.83704H4.86027H4.88347H4.90662H4.92974H4.95282H4.97586H4.99885H5.02181H5.04474H5.06762H5.09046H5.11327H5.13604H5.15877H5.18146H5.20412H5.22674H5.24932H5.27186H5.29437H5.31684H5.33927H5.36167H5.38403H5.40635H5.42864H5.45089H5.47311H5.49529H5.51743H5.53955H5.56162H5.58366H5.60567H5.62764H5.64957H5.67148H5.69334H5.71518H5.73698H5.75875H5.78048H5.80218H5.82385H5.84548H5.86708H5.88865H5.91018H5.93169H5.95316H5.9746H5.996H6.01738H6.03872H6.06003H6.08131H6.10256H6.12378H6.14497H6.16612H6.18725H6.20834H6.22941H6.25044H6.27145H6.29243H6.31337H6.33429H6.35517H6.37603H6.39686H6.41766H6.43843H6.45918H6.47989H6.50058H6.52123H6.54187H6.56247H6.58304H6.60359H6.62411H6.6446H6.66507H6.68551H6.70592H6.72631H6.74667H6.767H6.78731H6.80759H6.82785H6.84808H6.86828H6.88846H6.90862H6.92875H6.94885H6.96893H6.98899H7.00902H7.02903H7.04901H7.06897H7.08891H7.10882H7.12871H7.14857H7.16842H7.18824H7.20803H7.22781H7.24756H7.26729H7.287H7.30668H7.32634H7.34599H7.36561H7.38521H7.40478H7.42434H7.44388H7.46339H7.48289H7.50236H7.52181H7.54125H7.56066H7.58006H7.59943H7.61879H7.63812H7.65744H7.67674H7.69601H7.71527H7.73452H7.75374H7.77294H7.79213H7.8113H7.83045H7.84958H7.8687H7.8878H7.90688H7.92594H7.94499H7.96402H7.98304H8.00203H8.02101H8.03998H8.05893H8.07786H8.09678H8.11569H8.13457H8.15345H8.1723H8.19115H8.20997H8.22879H8.24759H8.26637H8.28514H8.3039H8.32264H8.34137H8.36009H8.37879H8.39748H8.41616H8.43483H8.45348H8.47212H8.49074H8.50936H8.52796H8.54655H8.56513H8.5837H8.60226H8.6208H8.63934H8.65786H8.67637H8.69487H8.71337H8.73185H8.75032H8.76878H8.78723H8.80567H8.8241H8.84253H8.86094H8.87934H8.89774H8.91613H8.9345H8.95287H8.97124H8.98959H9.00793H9.02627H9.0446H9.06293H9.08124H9.09955H9.11785H9.13614H9.15443H9.17271H9.19099H9.20926H9.22752H9.24577H9.26402H9.28227H9.30051H9.31874H9.33697H9.3552H9.37342H9.39163H9.40984H9.42805H9.44625H9.46445H9.48264H9.50083H9.51901H9.5372H9.55538H9.57355H9.59173H9.6099H9.62807H9.64623H9.66439H9.68255H9.70071H9.71887H9.73703H9.75518H9.77333H9.79148H9.80963H9.82778H9.84593H9.86408H9.88223H9.90037H9.91852H9.93667H9.95481H9.97296H9.99111H10.0093H10.0274H10.0456H10.0637H10.0819H10.1H10.1182H10.1363H10.1545H10.1726H10.1908H10.209H10.2271H10.2453H10.2635H10.2817H10.2998H10.318H10.3362H10.3544H10.3726H10.3908H10.409H10.4272H10.4454H10.4636H10.4818H10.5001H10.5183H10.5365H10.5548H10.573H10.5913H10.6095H10.6278H10.6461H10.6643H10.6826H10.7009H10.7192H10.7375H10.7558H10.7741H10.7924H10.8108H10.8291H10.8474H10.8658H10.8842H10.9025H10.9209H10.9393H10.9577H10.9761H10.9945H11.0129H11.0314H11.0498H11.0683H11.0867H11.1052H11.1237H11.1422H11.1607H11.1792H11.1977H11.2162H11.2348H11.2533H11.2719H11.2905H11.3091H11.3277H11.3463H11.3649H11.3836H11.4022H11.4209H11.4396H11.4582H11.4769H11.4957H11.5144H11.5331H11.5519H11.5707H11.5894H11.6082H11.6271H11.6459H11.6647H11.6836H11.7025H11.7214H11.7403H11.7592H11.7781H11.7971H11.816H11.835H11.854H11.873H11.892H11.9111H11.9302H11.9492H11.9683H11.9875H12.0066H12.0257H12.0449H12.0641H12.0833H12.1025H12.1218H12.141H12.1603H12.1796H12.1989H12.2183H12.2376H12.257H12.2764H12.2958H12.3152H12.3347H12.3542H12.3736H12.3932H12.4127H12.4323H12.4518H12.4714H12.4911H12.5107H12.5304H12.55H12.5697H12.5895H12.6092H12.629H12.6488H12.6686H12.6885H12.7083H12.7282H12.7481H12.7681H12.788H12.808H12.828H12.848H12.8681H12.8882H12.9083H12.9284H12.9486H12.9688H12.989H13.0092H13.0294H13.0497H13.07H13.0904H13.1107H13.1311H13.1515H13.172H13.1924H13.2129H13.2334H13.254H13.2746H13.2952H13.3158H13.3365H13.3571H13.3779H13.3986H13.4194H13.4402H13.461H13.4819H13.5027H13.5237H13.5446H13.5656H13.5866H13.6076H13.6287H13.6498H13.6709H13.6921H13.7133H13.7345H13.7557H13.777H13.7983H13.8197H13.841H13.8624H13.8839H13.9054H13.9269H13.9484H13.97H13.9916H14.0132H14.0349H14.0566H14.0783H14.1001H14.1219H14.1437H14.1656H14.1875H14.2094H14.2314H14.2534H14.2754H14.2975H14.3196H14.3417H14.3639H14.3861H14.4084H14.4307H14.453H14.4754H14.4978H14.5202H14.5427H14.5652H14.5877H14.6103H14.6329H14.6556H14.6783H14.701H14.7238H14.7466H14.7694H14.7923H14.8152H14.8382H14.8612H14.8842H14.9073H14.9304H14.9536H14.9768H15H15.5V2.45185V1V0.5H15H4.83704Z" fill="#5A758D" stroke="#5A758D"/>
</svg>
