<svg width="17" height="17" viewBox="0 0 17 17" fill="none" xmlns="http://www.w3.org/2000/svg">
<path fill-rule="evenodd" clip-rule="evenodd" d="M8.9884 7.16667C8.25202 7.16667 7.65507 7.76362 7.65507 8.5C7.65507 9.23638 8.25202 9.83333 8.9884 9.83333C9.72478 9.83333 10.3217 9.23638 10.3217 8.5C10.3217 7.76362 9.72478 7.16667 8.9884 7.16667ZM6.32174 8.5C6.32174 7.02724 7.51564 5.83333 8.9884 5.83333C10.4612 5.83333 11.6551 7.02724 11.6551 8.5C11.6551 9.97276 10.4612 11.1667 8.9884 11.1667C7.51564 11.1667 6.32174 9.97276 6.32174 8.5Z" fill="#0049C2"/>
<path fill-rule="evenodd" clip-rule="evenodd" d="M8.9884 1.83333C8.81159 1.83333 8.64202 1.90357 8.517 2.0286C8.39197 2.15362 8.32174 2.32319 8.32174 2.5V2.61599C8.32036 2.96053 8.21827 3.29715 8.02803 3.58441C7.83779 3.87167 7.56771 4.09703 7.25102 4.23276C7.19465 4.25692 7.13535 4.27313 7.07481 4.28104C6.78706 4.38181 6.47729 4.40665 6.17574 4.35197C5.82841 4.289 5.5079 4.12341 5.25556 3.87658L5.2503 3.87143L5.21033 3.8314C5.14842 3.76942 5.07463 3.71999 4.9937 3.68644C4.91276 3.65289 4.82601 3.63562 4.7384 3.63562C4.65079 3.63562 4.56404 3.65289 4.48311 3.68644C4.40218 3.71999 4.32865 3.76916 4.26674 3.83114L4.26621 3.83167C4.20423 3.89358 4.15506 3.96711 4.12151 4.04804C4.08796 4.12897 4.07069 4.21572 4.07069 4.30333C4.07069 4.39094 4.08796 4.47769 4.12151 4.55863C4.15506 4.63956 4.20423 4.71308 4.26621 4.775L4.31167 4.82046C4.55851 5.07281 4.72407 5.39334 4.78704 5.74067C4.84877 6.08109 4.80916 6.43198 4.67337 6.74985C4.54966 7.07422 4.33306 7.35511 4.05043 7.55725C3.7621 7.76348 3.41839 7.87819 3.06399 7.88648L3.0484 7.88667H2.9884C2.81159 7.88667 2.64202 7.9569 2.517 8.08193C2.39197 8.20695 2.32174 8.37652 2.32174 8.55333C2.32174 8.73014 2.39197 8.89971 2.517 9.02474C2.64202 9.14976 2.81159 9.22 2.9884 9.22H3.1044C3.44894 9.22137 3.78555 9.32347 4.07281 9.51371C4.35908 9.70329 4.58387 9.97215 4.71975 10.2874C4.86112 10.6095 4.90314 10.9665 4.84038 11.3127C4.7774 11.66 4.61182 11.9805 4.36498 12.2328L4.35983 12.2381L4.31981 12.2781C4.25782 12.34 4.20839 12.4138 4.17484 12.4947C4.14129 12.5756 4.12402 12.6624 4.12402 12.75C4.12402 12.8376 4.14129 12.9244 4.17484 13.0053C4.20839 13.0862 4.25756 13.1598 4.31955 13.2217L4.32007 13.2222C4.38198 13.2842 4.45551 13.3333 4.53644 13.3669C4.61738 13.4004 4.70413 13.4177 4.79174 13.4177C4.87935 13.4177 4.9661 13.4004 5.04703 13.3669C5.12796 13.3333 5.20149 13.2842 5.2634 13.2222L5.30887 13.1767C5.56121 12.9299 5.88174 12.7643 6.22907 12.7014C6.56949 12.6396 6.92038 12.6792 7.23825 12.815C7.56262 12.9387 7.84352 13.1553 8.04566 13.438C8.25188 13.7263 8.3666 14.07 8.37489 14.4244L8.37507 14.44V14.5C8.37507 14.6768 8.44531 14.8464 8.57033 14.9714C8.69536 15.0964 8.86493 15.1667 9.04174 15.1667C9.21855 15.1667 9.38812 15.0964 9.51314 14.9714C9.63817 14.8464 9.7084 14.6768 9.7084 14.5V14.3867L9.70841 14.384C9.70978 14.0395 9.81187 13.7029 10.0021 13.4156C10.1917 13.1293 10.4606 12.9045 10.7759 12.7686C11.098 12.6273 11.4549 12.5853 11.8011 12.648C12.1484 12.711 12.4689 12.8766 12.7212 13.1234L12.7265 13.1286L12.7665 13.1686C12.8284 13.2306 12.9022 13.28 12.9831 13.3136C13.064 13.3471 13.1508 13.3644 13.2384 13.3644C13.326 13.3644 13.4128 13.3471 13.4937 13.3136C13.5746 13.28 13.6482 13.2308 13.7101 13.1689L13.7106 13.1683C13.7726 13.1064 13.8218 13.0329 13.8553 12.952C13.8889 12.871 13.9061 12.7843 13.9061 12.6967C13.9061 12.6091 13.8889 12.5223 13.8553 12.4414C13.8218 12.3604 13.7726 12.2869 13.7106 12.225L13.6651 12.1795C13.4183 11.9272 13.2527 11.6067 13.1898 11.2593C13.127 10.9132 13.169 10.5562 13.3104 10.2342C13.4462 9.91887 13.671 9.64997 13.9573 9.46037C14.2446 9.27014 14.5812 9.16805 14.9257 9.16667L14.9284 9.16666L14.9884 9.16667C15.1652 9.16667 15.3348 9.09643 15.4598 8.97141C15.5848 8.84638 15.6551 8.67681 15.6551 8.5C15.6551 8.32319 15.5848 8.15362 15.4598 8.0286C15.3348 7.90357 15.1652 7.83333 14.9884 7.83333H14.8751L14.8724 7.83333C14.5279 7.83195 14.1913 7.72986 13.904 7.53963C13.6167 7.34939 13.3914 7.0793 13.2556 6.76262C13.2315 6.70625 13.2153 6.64695 13.2074 6.58641C13.1066 6.29865 13.0818 5.98888 13.1364 5.68733C13.1994 5.34 13.365 5.0195 13.6118 4.76716L13.617 4.7619L13.657 4.72193C13.719 4.66001 13.7684 4.58622 13.802 4.50529C13.8355 4.42436 13.8528 4.33761 13.8528 4.25C13.8528 4.16239 13.8355 4.07564 13.802 3.99471C13.7684 3.91378 13.7192 3.84025 13.6573 3.77833L13.6567 3.77781C13.5948 3.71582 13.5213 3.66665 13.4404 3.6331C13.3594 3.59955 13.2727 3.58228 13.1851 3.58228C13.0975 3.58228 13.0107 3.59955 12.9298 3.6331C12.8488 3.66665 12.7753 3.71583 12.7134 3.77781L12.6679 3.82327C12.4156 4.07011 12.0951 4.23566 11.7477 4.29864C11.4016 4.36141 11.0446 4.31939 10.7225 4.17801C10.4072 4.04213 10.1384 3.81734 9.94878 3.53108C9.75854 3.24382 9.65645 2.9072 9.65508 2.56266L9.65507 2.56V2.5C9.65507 2.32319 9.58483 2.15362 9.45981 2.0286C9.33478 1.90357 9.16521 1.83333 8.9884 1.83333ZM13.9217 10.5L14.5316 10.7692C14.4967 10.8484 14.4863 10.9363 14.5017 11.0215C14.517 11.1057 14.5569 11.1835 14.6163 11.2451L14.6529 11.2817C14.6528 11.2816 14.653 11.2818 14.6529 11.2817C14.8387 11.4674 14.9864 11.6881 15.087 11.9308C15.1876 12.1736 15.2395 12.4338 15.2395 12.6967C15.2395 12.9595 15.1876 13.2198 15.087 13.4625C14.9864 13.7053 14.8388 13.9259 14.6529 14.1117L14.1817 13.64L14.6534 14.1111C14.4677 14.2971 14.2471 14.4446 14.0043 14.5453C13.7615 14.6459 13.5012 14.6977 13.2384 14.6977C12.9756 14.6977 12.7153 14.6459 12.4725 14.5453C12.2298 14.4447 12.0094 14.2972 11.8237 14.1114C11.8238 14.1115 11.8236 14.1113 11.8237 14.1114L11.7868 14.0746C11.7253 14.0151 11.6474 13.9752 11.5632 13.96C11.478 13.9445 11.3901 13.9549 11.3109 13.9899L11.3044 13.9928C11.2267 14.0261 11.1604 14.0813 11.1138 14.1518C11.0673 14.222 11.0423 14.3042 11.0417 14.3883V14.5C11.0417 15.0304 10.831 15.5391 10.4559 15.9142C10.0809 16.2893 9.57217 16.5 9.04174 16.5C8.5113 16.5 8.0026 16.2893 7.62752 15.9142C7.25245 15.5391 7.04174 15.0304 7.04174 14.5V14.4496C7.03858 14.3648 7.01058 14.2827 6.96116 14.2136C6.91058 14.1429 6.83989 14.089 6.75828 14.059C6.7451 14.0542 6.73208 14.0489 6.71923 14.0432C6.64001 14.0083 6.55215 13.9979 6.46695 14.0133C6.38268 14.0286 6.30485 14.0685 6.24327 14.1279L6.20674 14.1645C6.20682 14.1644 6.20665 14.1646 6.20674 14.1645C6.02104 14.3503 5.8003 14.498 5.55762 14.5986C5.31482 14.6992 5.05457 14.751 4.79174 14.751C4.5289 14.751 4.26865 14.6992 4.02586 14.5986C3.78329 14.498 3.5629 14.3507 3.37726 14.165C3.19131 13.9793 3.04379 13.7587 2.94314 13.5159C2.84249 13.2731 2.79069 13.0128 2.79069 12.75C2.79069 12.4872 2.84249 12.2269 2.94314 11.9841C3.04379 11.7413 3.19131 11.5207 3.37726 11.335L3.41381 11.2985C3.47326 11.2369 3.51316 11.159 3.52844 11.0748C3.54388 10.9896 3.53345 10.9017 3.49849 10.8225L3.49561 10.816C3.46232 10.7383 3.40707 10.672 3.33661 10.6254C3.26643 10.5789 3.18423 10.5539 3.10007 10.5533H2.9884C2.45797 10.5533 1.94926 10.3426 1.57419 9.96755C1.19912 9.59247 0.988403 9.08377 0.988403 8.55333C0.988403 8.0229 1.19912 7.51419 1.57419 7.13912C1.94926 6.76405 2.45797 6.55333 2.9884 6.55333H3.03883C3.12363 6.55017 3.20568 6.52218 3.27477 6.47276C3.34549 6.42218 3.39937 6.35149 3.42938 6.26988C3.43423 6.2567 3.43949 6.24367 3.44516 6.23082C3.48012 6.15161 3.49055 6.06374 3.4751 5.97855C3.45982 5.89428 3.41992 5.81645 3.36047 5.75487L3.32393 5.71833C3.13797 5.53259 2.99046 5.31201 2.88981 5.06921C2.78916 4.82642 2.73735 4.56616 2.73735 4.30333C2.73735 4.0405 2.78916 3.78025 2.88981 3.53745C2.99041 3.29477 3.13784 3.07429 3.32367 2.8886C3.50936 2.70277 3.72984 2.55534 3.97252 2.45474C4.21532 2.35409 4.47557 2.30228 4.7384 2.30228C5.00123 2.30228 5.26149 2.35409 5.50428 2.45474C5.74708 2.55539 5.96766 2.7029 6.1534 2.88886L6.18994 2.9254C6.25152 2.98485 6.32935 3.02475 6.41362 3.04003C6.49881 3.05548 6.58668 3.04505 6.66589 3.01009C6.70859 2.99125 6.75302 2.97699 6.79845 2.96748C6.84493 2.93593 6.88506 2.89549 6.91637 2.84821C6.96285 2.77803 6.98788 2.69583 6.9884 2.61167V2.5C6.9884 1.96957 7.19912 1.46086 7.57419 1.08579C7.94926 0.710714 8.45797 0.5 8.9884 0.5C9.51884 0.5 10.0275 0.710714 10.4026 1.08579C10.7777 1.46086 10.9884 1.96957 10.9884 2.5V2.55833C10.9889 2.6425 11.014 2.72469 11.0604 2.79488C11.1071 2.86534 11.1733 2.92062 11.251 2.95391L11.2576 2.95672C11.3368 2.99168 11.4247 3.00215 11.5099 2.9867C11.5941 2.97142 11.6719 2.93152 11.7335 2.87207L11.7701 2.83552C11.9558 2.64957 12.1764 2.50205 12.4192 2.40141C12.662 2.30076 12.9222 2.24895 13.1851 2.24895C13.4479 2.24895 13.7082 2.30076 13.951 2.40141C14.1937 2.50205 14.4143 2.64957 14.6001 2.83552C14.7858 3.02116 14.9331 3.24155 15.0337 3.48412C15.1343 3.72691 15.1861 3.98717 15.1861 4.25C15.1861 4.51283 15.1343 4.77309 15.0337 5.01588C14.9331 5.25856 14.7856 5.47905 14.5998 5.66474C14.5999 5.66465 14.5997 5.66482 14.5998 5.66474L14.563 5.70154C14.5036 5.76312 14.4637 5.84095 14.4484 5.92521C14.4329 6.01041 14.4434 6.09828 14.4783 6.17749C14.4972 6.22018 14.5114 6.26462 14.5209 6.31004C14.5525 6.35653 14.5929 6.39665 14.6402 6.42796C14.7104 6.47444 14.7926 6.49947 14.8767 6.5H14.9884C15.5188 6.5 16.0275 6.71071 16.4026 7.08579C16.7777 7.46086 16.9884 7.96957 16.9884 8.5C16.9884 9.03043 16.7777 9.53914 16.4026 9.91421C16.0275 10.2893 15.5188 10.5 14.9884 10.5H14.9301C14.8459 10.5005 14.7637 10.5256 14.6935 10.572C14.6231 10.6187 14.5678 10.6849 14.5345 10.7626L13.9217 10.5Z" fill="#0049C2"/>
</svg>
