<svg width="16" height="6" viewBox="0 0 16 6" fill="none" xmlns="http://www.w3.org/2000/svg">
<path d="M1 6C0.716667 6 0.479 5.904 0.287 5.712C0.0956668 5.52067 0 5.28333 0 5V1C0 0.716667 0.0956668 0.479 0.287 0.287C0.479 0.0956664 0.716667 0 1 0C1.28333 0 1.521 0.0956664 1.713 0.287C1.90433 0.479 2 0.716667 2 1V4H14V1C14 0.716667 14.096 0.479 14.288 0.287C14.4793 0.0956664 14.7167 0 15 0C15.2833 0 15.5207 0.0956664 15.712 0.287C15.904 0.479 16 0.716667 16 1V5C16 5.28333 15.904 5.52067 15.712 5.712C15.5207 5.904 15.2833 6 15 6H1Z" fill="#5A758D"/>
</svg>
