<svg width="7" height="20" viewBox="0 0 7 20" fill="none" xmlns="http://www.w3.org/2000/svg">
<path d="M3.96351 0.710546L6.67671 3.42374C6.80207 3.55339 6.87215 3.72668 6.87215 3.90703C6.87215 4.08738 6.80207 4.26067 6.67671 4.39032C6.54811 4.51769 6.37442 4.58914 6.19342 4.58914C6.01242 4.58914 5.83873 4.51769 5.71013 4.39032L4.15852 2.83023L4.15852 17.1932L5.71013 15.6331C5.83873 15.5057 6.01242 15.4343 6.19342 15.4343C6.37442 15.4343 6.54811 15.5057 6.67671 15.6331C6.80207 15.7628 6.87215 15.9361 6.87215 16.1164C6.87215 16.2968 6.80207 16.47 6.67671 16.5997L3.96351 19.3129C3.83491 19.4403 3.66123 19.5117 3.48023 19.5117C3.29922 19.5117 3.12554 19.4403 2.99694 19.3129L0.283742 16.5997C0.175578 16.4679 0.120302 16.3006 0.128666 16.1303C0.137029 15.96 0.208434 15.7989 0.328991 15.6784C0.449549 15.5578 0.610639 15.4864 0.780927 15.478C0.951216 15.4697 1.11853 15.525 1.25032 15.6331L2.80193 17.1932L2.80193 2.83023L1.25032 4.39032C1.11853 4.49848 0.951216 4.55376 0.780927 4.54539C0.610639 4.53703 0.449549 4.46562 0.328991 4.34507C0.208434 4.22451 0.137029 4.06342 0.128666 3.89313C0.120302 3.72284 0.175578 3.55553 0.283742 3.42374L2.99694 0.710546C3.12554 0.583174 3.29922 0.511719 3.48023 0.511719C3.66123 0.511719 3.83491 0.583174 3.96351 0.710546Z" fill="#5A758D"/>
</svg>
